{
	"asset":{
		"generator":"Khronos glTF Blender I/O v4.1.63",
		"version":"2.0"
	},
	"scene":0,
	"scenes":[
		{
			"name":"Scene",
			"nodes":[
				17
			]
		}
	],
	"nodes":[
		{
			"name":"head",
			"translation":[
				0,
				0.31503725051879883,
				0
			]
		},
		{
			"children":[
				0
			],
			"name":"neck",
			"rotation":[
				0,
				1.1920928955078125e-07,
				0,
				1
			],
			"translation":[
				0,
				0.4137234687805176,
				0
			]
		},
		{
			"name":"leftHand",
			"rotation":[
				0,
				3.552713678800501e-15,
				0,
				1
			],
			"translation":[
				0,
				0.4972275495529175,
				0
			]
		},
		{
			"children":[
				2
			],
			"name":"leftHandNeck",
			"rotation":[
				0,
				-3.552713678800501e-15,
				0,
				1
			],
			"scale":[
				1,
				0.9999999403953552,
				1
			],
			"translation":[
				0,
				0.7135783433914185,
				0
			]
		},
		{
			"children":[
				3
			],
			"name":"leftElbow",
			"translation":[
				0,
				0.5807312726974487,
				0
			]
		},
		{
			"children":[
				4
			],
			"name":"leftShoulder",
			"rotation":[
				-2.6692537957728746e-08,
				-2.6692537957728746e-08,
				-0.7071067690849304,
				0.7071067690849304
			],
			"translation":[
				0,
				0.4137234687805176,
				0
			]
		},
		{
			"name":"sord2",
			"rotation":[
				-7.18343062171365e-15,
				2.1007501294079134e-14,
				-9.778887033462524e-09,
				1
			],
			"scale":[
				1,
				0.9999999403953552,
				1
			],
			"translation":[
				1.4102738532528747e-08,
				0.22177310287952423,
				-8.803110773669687e-08
			]
		},
		{
			"children":[
				6
			],
			"name":"sord1",
			"rotation":[
				5.767328303818431e-08,
				6.106960504783862e-14,
				0.1481025367975235,
				0.9889720678329468
			],
			"translation":[
				-2.03564241019194e-08,
				0.28368064761161804,
				2.4901193995674475e-08
			]
		},
		{
			"children":[
				7
			],
			"name":"sord0",
			"rotation":[
				-2.1881835721160314e-07,
				-6.993708012714706e-08,
				-0.8098229765892029,
				0.5866743922233582
			],
			"scale":[
				0.9999999403953552,
				0.9999999403953552,
				1
			],
			"translation":[
				-1.4210854715202004e-14,
				0.20875954627990723,
				0
			]
		},
		{
			"children":[
				8
			],
			"name":"rightHand",
			"translation":[
				-1.4210854715202004e-14,
				0.4972275495529175,
				0
			]
		},
		{
			"children":[
				9
			],
			"name":"rightHandNeck",
			"translation":[
				0,
				0.713578462600708,
				0
			]
		},
		{
			"children":[
				10
			],
			"name":"rightElbow",
			"rotation":[
				0,
				5.962441207429947e-09,
				0,
				1
			],
			"translation":[
				0,
				0.5807312726974487,
				0
			]
		},
		{
			"children":[
				11
			],
			"name":"rightShoulder",
			"rotation":[
				0.5000000596046448,
				-0.5,
				0.5,
				0.5
			],
			"scale":[
				1,
				0.9999999403953552,
				1
			],
			"translation":[
				0,
				0.4137234687805176,
				0
			]
		},
		{
			"children":[
				1,
				5,
				12
			],
			"name":"chest",
			"translation":[
				0,
				0.5124099254608154,
				0
			]
		},
		{
			"children":[
				13
			],
			"name":"stomach",
			"translation":[
				0,
				0.46847522258758545,
				0
			]
		},
		{
			"children":[
				14
			],
			"name":"pelvis",
			"translation":[
				0,
				0.1117565780878067,
				0
			]
		},
		{
			"mesh":0,
			"name":"Player",
			"skin":0
		},
		{
			"children":[
				16,
				15
			],
			"name":"Armature"
		}
	],
	"animations":[
		{
			"channels":[
				{
					"sampler":0,
					"target":{
						"node":15,
						"path":"translation"
					}
				},
				{
					"sampler":1,
					"target":{
						"node":15,
						"path":"rotation"
					}
				},
				{
					"sampler":2,
					"target":{
						"node":15,
						"path":"scale"
					}
				},
				{
					"sampler":3,
					"target":{
						"node":14,
						"path":"translation"
					}
				},
				{
					"sampler":4,
					"target":{
						"node":14,
						"path":"rotation"
					}
				},
				{
					"sampler":5,
					"target":{
						"node":14,
						"path":"scale"
					}
				},
				{
					"sampler":6,
					"target":{
						"node":13,
						"path":"translation"
					}
				},
				{
					"sampler":7,
					"target":{
						"node":13,
						"path":"rotation"
					}
				},
				{
					"sampler":8,
					"target":{
						"node":13,
						"path":"scale"
					}
				},
				{
					"sampler":9,
					"target":{
						"node":1,
						"path":"translation"
					}
				},
				{
					"sampler":10,
					"target":{
						"node":1,
						"path":"rotation"
					}
				},
				{
					"sampler":11,
					"target":{
						"node":1,
						"path":"scale"
					}
				},
				{
					"sampler":12,
					"target":{
						"node":0,
						"path":"translation"
					}
				},
				{
					"sampler":13,
					"target":{
						"node":0,
						"path":"rotation"
					}
				},
				{
					"sampler":14,
					"target":{
						"node":0,
						"path":"scale"
					}
				},
				{
					"sampler":15,
					"target":{
						"node":5,
						"path":"translation"
					}
				},
				{
					"sampler":16,
					"target":{
						"node":5,
						"path":"rotation"
					}
				},
				{
					"sampler":17,
					"target":{
						"node":5,
						"path":"scale"
					}
				},
				{
					"sampler":18,
					"target":{
						"node":4,
						"path":"translation"
					}
				},
				{
					"sampler":19,
					"target":{
						"node":4,
						"path":"rotation"
					}
				},
				{
					"sampler":20,
					"target":{
						"node":4,
						"path":"scale"
					}
				},
				{
					"sampler":21,
					"target":{
						"node":3,
						"path":"translation"
					}
				},
				{
					"sampler":22,
					"target":{
						"node":3,
						"path":"rotation"
					}
				},
				{
					"sampler":23,
					"target":{
						"node":3,
						"path":"scale"
					}
				},
				{
					"sampler":24,
					"target":{
						"node":2,
						"path":"translation"
					}
				},
				{
					"sampler":25,
					"target":{
						"node":2,
						"path":"rotation"
					}
				},
				{
					"sampler":26,
					"target":{
						"node":2,
						"path":"scale"
					}
				},
				{
					"sampler":27,
					"target":{
						"node":12,
						"path":"translation"
					}
				},
				{
					"sampler":28,
					"target":{
						"node":12,
						"path":"rotation"
					}
				},
				{
					"sampler":29,
					"target":{
						"node":12,
						"path":"scale"
					}
				},
				{
					"sampler":30,
					"target":{
						"node":11,
						"path":"translation"
					}
				},
				{
					"sampler":31,
					"target":{
						"node":11,
						"path":"rotation"
					}
				},
				{
					"sampler":32,
					"target":{
						"node":11,
						"path":"scale"
					}
				},
				{
					"sampler":33,
					"target":{
						"node":10,
						"path":"translation"
					}
				},
				{
					"sampler":34,
					"target":{
						"node":10,
						"path":"rotation"
					}
				},
				{
					"sampler":35,
					"target":{
						"node":10,
						"path":"scale"
					}
				},
				{
					"sampler":36,
					"target":{
						"node":9,
						"path":"translation"
					}
				},
				{
					"sampler":37,
					"target":{
						"node":9,
						"path":"rotation"
					}
				},
				{
					"sampler":38,
					"target":{
						"node":9,
						"path":"scale"
					}
				},
				{
					"sampler":39,
					"target":{
						"node":8,
						"path":"translation"
					}
				},
				{
					"sampler":40,
					"target":{
						"node":8,
						"path":"rotation"
					}
				},
				{
					"sampler":41,
					"target":{
						"node":8,
						"path":"scale"
					}
				},
				{
					"sampler":42,
					"target":{
						"node":7,
						"path":"translation"
					}
				},
				{
					"sampler":43,
					"target":{
						"node":7,
						"path":"rotation"
					}
				},
				{
					"sampler":44,
					"target":{
						"node":7,
						"path":"scale"
					}
				},
				{
					"sampler":45,
					"target":{
						"node":6,
						"path":"translation"
					}
				},
				{
					"sampler":46,
					"target":{
						"node":6,
						"path":"rotation"
					}
				},
				{
					"sampler":47,
					"target":{
						"node":6,
						"path":"scale"
					}
				}
			],
			"name":"wait",
			"samplers":[
				{
					"input":8,
					"interpolation":"STEP",
					"output":9
				},
				{
					"input":8,
					"interpolation":"STEP",
					"output":10
				},
				{
					"input":8,
					"interpolation":"STEP",
					"output":11
				},
				{
					"input":8,
					"interpolation":"STEP",
					"output":12
				},
				{
					"input":8,
					"interpolation":"STEP",
					"output":13
				},
				{
					"input":8,
					"interpolation":"STEP",
					"output":14
				},
				{
					"input":8,
					"interpolation":"STEP",
					"output":15
				},
				{
					"input":8,
					"interpolation":"STEP",
					"output":16
				},
				{
					"input":8,
					"interpolation":"STEP",
					"output":17
				},
				{
					"input":8,
					"interpolation":"STEP",
					"output":18
				},
				{
					"input":8,
					"interpolation":"STEP",
					"output":19
				},
				{
					"input":8,
					"interpolation":"STEP",
					"output":20
				},
				{
					"input":8,
					"interpolation":"STEP",
					"output":21
				},
				{
					"input":8,
					"interpolation":"STEP",
					"output":22
				},
				{
					"input":8,
					"interpolation":"STEP",
					"output":23
				},
				{
					"input":8,
					"interpolation":"STEP",
					"output":24
				},
				{
					"input":8,
					"interpolation":"STEP",
					"output":25
				},
				{
					"input":8,
					"interpolation":"STEP",
					"output":26
				},
				{
					"input":8,
					"interpolation":"STEP",
					"output":27
				},
				{
					"input":28,
					"interpolation":"LINEAR",
					"output":29
				},
				{
					"input":8,
					"interpolation":"STEP",
					"output":30
				},
				{
					"input":8,
					"interpolation":"STEP",
					"output":31
				},
				{
					"input":28,
					"interpolation":"LINEAR",
					"output":32
				},
				{
					"input":8,
					"interpolation":"STEP",
					"output":33
				},
				{
					"input":8,
					"interpolation":"STEP",
					"output":34
				},
				{
					"input":8,
					"interpolation":"STEP",
					"output":35
				},
				{
					"input":8,
					"interpolation":"STEP",
					"output":36
				},
				{
					"input":8,
					"interpolation":"STEP",
					"output":37
				},
				{
					"input":8,
					"interpolation":"STEP",
					"output":38
				},
				{
					"input":8,
					"interpolation":"STEP",
					"output":39
				},
				{
					"input":8,
					"interpolation":"STEP",
					"output":40
				},
				{
					"input":28,
					"interpolation":"LINEAR",
					"output":41
				},
				{
					"input":8,
					"interpolation":"STEP",
					"output":42
				},
				{
					"input":8,
					"interpolation":"STEP",
					"output":43
				},
				{
					"input":28,
					"interpolation":"LINEAR",
					"output":44
				},
				{
					"input":8,
					"interpolation":"STEP",
					"output":45
				},
				{
					"input":8,
					"interpolation":"STEP",
					"output":46
				},
				{
					"input":8,
					"interpolation":"STEP",
					"output":47
				},
				{
					"input":8,
					"interpolation":"STEP",
					"output":48
				},
				{
					"input":8,
					"interpolation":"STEP",
					"output":49
				},
				{
					"input":8,
					"interpolation":"STEP",
					"output":50
				},
				{
					"input":8,
					"interpolation":"STEP",
					"output":51
				},
				{
					"input":8,
					"interpolation":"STEP",
					"output":52
				},
				{
					"input":8,
					"interpolation":"STEP",
					"output":53
				},
				{
					"input":8,
					"interpolation":"STEP",
					"output":54
				},
				{
					"input":8,
					"interpolation":"STEP",
					"output":55
				},
				{
					"input":8,
					"interpolation":"STEP",
					"output":56
				},
				{
					"input":8,
					"interpolation":"STEP",
					"output":57
				}
			]
		}
	],
	"meshes":[
		{
			"name":"\u5e73\u9762.005",
			"primitives":[
				{
					"attributes":{
						"POSITION":0,
						"NORMAL":1,
						"TEXCOORD_0":2,
						"TEXCOORD_1":3,
						"JOINTS_0":4,
						"WEIGHTS_0":5
					},
					"indices":6
				}
			]
		}
	],
	"skins":[
		{
			"inverseBindMatrices":7,
			"joints":[
				15,
				14,
				13,
				1,
				0,
				5,
				4,
				3,
				2,
				12,
				11,
				10,
				9,
				8,
				7,
				6
			],
			"name":"Armature"
		}
	],
	"accessors":[
		{
			"bufferView":0,
			"componentType":5126,
			"count":1238,
			"max":[
				1.9976718425750732,
				2.612818717956543,
				2.2072012424468994
			],
			"min":[
				-1.9976718425750732,
				0.08624231815338135,
				-0.41975313425064087
			],
			"type":"VEC3"
		},
		{
			"bufferView":1,
			"componentType":5126,
			"count":1238,
			"type":"VEC3"
		},
		{
			"bufferView":2,
			"componentType":5126,
			"count":1238,
			"type":"VEC2"
		},
		{
			"bufferView":3,
			"componentType":5126,
			"count":1238,
			"type":"VEC2"
		},
		{
			"bufferView":4,
			"componentType":5121,
			"count":1238,
			"type":"VEC4"
		},
		{
			"bufferView":5,
			"componentType":5126,
			"count":1238,
			"type":"VEC4"
		},
		{
			"bufferView":6,
			"componentType":5123,
			"count":1854,
			"type":"SCALAR"
		},
		{
			"bufferView":7,
			"componentType":5126,
			"count":16,
			"type":"MAT4"
		},
		{
			"bufferView":8,
			"componentType":5126,
			"count":2,
			"max":[
				2.5
			],
			"min":[
				0
			],
			"type":"SCALAR"
		},
		{
			"bufferView":9,
			"componentType":5126,
			"count":2,
			"type":"VEC3"
		},
		{
			"bufferView":10,
			"componentType":5126,
			"count":2,
			"type":"VEC4"
		},
		{
			"bufferView":11,
			"componentType":5126,
			"count":2,
			"type":"VEC3"
		},
		{
			"bufferView":12,
			"componentType":5126,
			"count":2,
			"type":"VEC3"
		},
		{
			"bufferView":13,
			"componentType":5126,
			"count":2,
			"type":"VEC4"
		},
		{
			"bufferView":14,
			"componentType":5126,
			"count":2,
			"type":"VEC3"
		},
		{
			"bufferView":15,
			"componentType":5126,
			"count":2,
			"type":"VEC3"
		},
		{
			"bufferView":16,
			"componentType":5126,
			"count":2,
			"type":"VEC4"
		},
		{
			"bufferView":17,
			"componentType":5126,
			"count":2,
			"type":"VEC3"
		},
		{
			"bufferView":18,
			"componentType":5126,
			"count":2,
			"type":"VEC3"
		},
		{
			"bufferView":19,
			"componentType":5126,
			"count":2,
			"type":"VEC4"
		},
		{
			"bufferView":20,
			"componentType":5126,
			"count":2,
			"type":"VEC3"
		},
		{
			"bufferView":21,
			"componentType":5126,
			"count":2,
			"type":"VEC3"
		},
		{
			"bufferView":22,
			"componentType":5126,
			"count":2,
			"type":"VEC4"
		},
		{
			"bufferView":23,
			"componentType":5126,
			"count":2,
			"type":"VEC3"
		},
		{
			"bufferView":24,
			"componentType":5126,
			"count":2,
			"type":"VEC3"
		},
		{
			"bufferView":25,
			"componentType":5126,
			"count":2,
			"type":"VEC4"
		},
		{
			"bufferView":26,
			"componentType":5126,
			"count":2,
			"type":"VEC3"
		},
		{
			"bufferView":27,
			"componentType":5126,
			"count":2,
			"type":"VEC3"
		},
		{
			"bufferView":28,
			"componentType":5126,
			"count":61,
			"max":[
				2.5
			],
			"min":[
				0
			],
			"type":"SCALAR"
		},
		{
			"bufferView":29,
			"componentType":5126,
			"count":61,
			"type":"VEC4"
		},
		{
			"bufferView":30,
			"componentType":5126,
			"count":2,
			"type":"VEC3"
		},
		{
			"bufferView":31,
			"componentType":5126,
			"count":2,
			"type":"VEC3"
		},
		{
			"bufferView":32,
			"componentType":5126,
			"count":61,
			"type":"VEC4"
		},
		{
			"bufferView":33,
			"componentType":5126,
			"count":2,
			"type":"VEC3"
		},
		{
			"bufferView":34,
			"componentType":5126,
			"count":2,
			"type":"VEC3"
		},
		{
			"bufferView":35,
			"componentType":5126,
			"count":2,
			"type":"VEC4"
		},
		{
			"bufferView":36,
			"componentType":5126,
			"count":2,
			"type":"VEC3"
		},
		{
			"bufferView":37,
			"componentType":5126,
			"count":2,
			"type":"VEC3"
		},
		{
			"bufferView":38,
			"componentType":5126,
			"count":2,
			"type":"VEC4"
		},
		{
			"bufferView":39,
			"componentType":5126,
			"count":2,
			"type":"VEC3"
		},
		{
			"bufferView":40,
			"componentType":5126,
			"count":2,
			"type":"VEC3"
		},
		{
			"bufferView":41,
			"componentType":5126,
			"count":61,
			"type":"VEC4"
		},
		{
			"bufferView":42,
			"componentType":5126,
			"count":2,
			"type":"VEC3"
		},
		{
			"bufferView":43,
			"componentType":5126,
			"count":2,
			"type":"VEC3"
		},
		{
			"bufferView":44,
			"componentType":5126,
			"count":61,
			"type":"VEC4"
		},
		{
			"bufferView":45,
			"componentType":5126,
			"count":2,
			"type":"VEC3"
		},
		{
			"bufferView":46,
			"componentType":5126,
			"count":2,
			"type":"VEC3"
		},
		{
			"bufferView":47,
			"componentType":5126,
			"count":2,
			"type":"VEC4"
		},
		{
			"bufferView":48,
			"componentType":5126,
			"count":2,
			"type":"VEC3"
		},
		{
			"bufferView":49,
			"componentType":5126,
			"count":2,
			"type":"VEC3"
		},
		{
			"bufferView":50,
			"componentType":5126,
			"count":2,
			"type":"VEC4"
		},
		{
			"bufferView":51,
			"componentType":5126,
			"count":2,
			"type":"VEC3"
		},
		{
			"bufferView":52,
			"componentType":5126,
			"count":2,
			"type":"VEC3"
		},
		{
			"bufferView":53,
			"componentType":5126,
			"count":2,
			"type":"VEC4"
		},
		{
			"bufferView":54,
			"componentType":5126,
			"count":2,
			"type":"VEC3"
		},
		{
			"bufferView":55,
			"componentType":5126,
			"count":2,
			"type":"VEC3"
		},
		{
			"bufferView":56,
			"componentType":5126,
			"count":2,
			"type":"VEC4"
		},
		{
			"bufferView":57,
			"componentType":5126,
			"count":2,
			"type":"VEC3"
		}
	],
	"bufferViews":[
		{
			"buffer":0,
			"byteLength":14856,
			"byteOffset":0,
			"target":34962
		},
		{
			"buffer":0,
			"byteLength":14856,
			"byteOffset":14856,
			"target":34962
		},
		{
			"buffer":0,
			"byteLength":9904,
			"byteOffset":29712,
			"target":34962
		},
		{
			"buffer":0,
			"byteLength":9904,
			"byteOffset":39616,
			"target":34962
		},
		{
			"buffer":0,
			"byteLength":4952,
			"byteOffset":49520,
			"target":34962
		},
		{
			"buffer":0,
			"byteLength":19808,
			"byteOffset":54472,
			"target":34962
		},
		{
			"buffer":0,
			"byteLength":3708,
			"byteOffset":74280,
			"target":34963
		},
		{
			"buffer":0,
			"byteLength":1024,
			"byteOffset":77988
		},
		{
			"buffer":0,
			"byteLength":8,
			"byteOffset":79012
		},
		{
			"buffer":0,
			"byteLength":24,
			"byteOffset":79020
		},
		{
			"buffer":0,
			"byteLength":32,
			"byteOffset":79044
		},
		{
			"buffer":0,
			"byteLength":24,
			"byteOffset":79076
		},
		{
			"buffer":0,
			"byteLength":24,
			"byteOffset":79100
		},
		{
			"buffer":0,
			"byteLength":32,
			"byteOffset":79124
		},
		{
			"buffer":0,
			"byteLength":24,
			"byteOffset":79156
		},
		{
			"buffer":0,
			"byteLength":24,
			"byteOffset":79180
		},
		{
			"buffer":0,
			"byteLength":32,
			"byteOffset":79204
		},
		{
			"buffer":0,
			"byteLength":24,
			"byteOffset":79236
		},
		{
			"buffer":0,
			"byteLength":24,
			"byteOffset":79260
		},
		{
			"buffer":0,
			"byteLength":32,
			"byteOffset":79284
		},
		{
			"buffer":0,
			"byteLength":24,
			"byteOffset":79316
		},
		{
			"buffer":0,
			"byteLength":24,
			"byteOffset":79340
		},
		{
			"buffer":0,
			"byteLength":32,
			"byteOffset":79364
		},
		{
			"buffer":0,
			"byteLength":24,
			"byteOffset":79396
		},
		{
			"buffer":0,
			"byteLength":24,
			"byteOffset":79420
		},
		{
			"buffer":0,
			"byteLength":32,
			"byteOffset":79444
		},
		{
			"buffer":0,
			"byteLength":24,
			"byteOffset":79476
		},
		{
			"buffer":0,
			"byteLength":24,
			"byteOffset":79500
		},
		{
			"buffer":0,
			"byteLength":244,
			"byteOffset":79524
		},
		{
			"buffer":0,
			"byteLength":976,
			"byteOffset":79768
		},
		{
			"buffer":0,
			"byteLength":24,
			"byteOffset":80744
		},
		{
			"buffer":0,
			"byteLength":24,
			"byteOffset":80768
		},
		{
			"buffer":0,
			"byteLength":976,
			"byteOffset":80792
		},
		{
			"buffer":0,
			"byteLength":24,
			"byteOffset":81768
		},
		{
			"buffer":0,
			"byteLength":24,
			"byteOffset":81792
		},
		{
			"buffer":0,
			"byteLength":32,
			"byteOffset":81816
		},
		{
			"buffer":0,
			"byteLength":24,
			"byteOffset":81848
		},
		{
			"buffer":0,
			"byteLength":24,
			"byteOffset":81872
		},
		{
			"buffer":0,
			"byteLength":32,
			"byteOffset":81896
		},
		{
			"buffer":0,
			"byteLength":24,
			"byteOffset":81928
		},
		{
			"buffer":0,
			"byteLength":24,
			"byteOffset":81952
		},
		{
			"buffer":0,
			"byteLength":976,
			"byteOffset":81976
		},
		{
			"buffer":0,
			"byteLength":24,
			"byteOffset":82952
		},
		{
			"buffer":0,
			"byteLength":24,
			"byteOffset":82976
		},
		{
			"buffer":0,
			"byteLength":976,
			"byteOffset":83000
		},
		{
			"buffer":0,
			"byteLength":24,
			"byteOffset":83976
		},
		{
			"buffer":0,
			"byteLength":24,
			"byteOffset":84000
		},
		{
			"buffer":0,
			"byteLength":32,
			"byteOffset":84024
		},
		{
			"buffer":0,
			"byteLength":24,
			"byteOffset":84056
		},
		{
			"buffer":0,
			"byteLength":24,
			"byteOffset":84080
		},
		{
			"buffer":0,
			"byteLength":32,
			"byteOffset":84104
		},
		{
			"buffer":0,
			"byteLength":24,
			"byteOffset":84136
		},
		{
			"buffer":0,
			"byteLength":24,
			"byteOffset":84160
		},
		{
			"buffer":0,
			"byteLength":32,
			"byteOffset":84184
		},
		{
			"buffer":0,
			"byteLength":24,
			"byteOffset":84216
		},
		{
			"buffer":0,
			"byteLength":24,
			"byteOffset":84240
		},
		{
			"buffer":0,
			"byteLength":32,
			"byteOffset":84264
		},
		{
			"buffer":0,
			"byteLength":24,
			"byteOffset":84296
		}
	],
	"buffers":[
		{
			"byteLength":84320,
			"uri":"player.bin"
		}
	]
}
